<svg xmlns="http://www.w3.org/2000/svg" xmlns:rdkit="http://www.rdkit.org/xml" xmlns:xlink="http://www.w3.org/1999/xlink" version="1.1" baseProfile="full" xml:space="preserve" width="250px" height="250px" viewBox="0 0 250 250">
<!-- END OF HEADER -->
<rect style="opacity:1.0;fill:#FFFFFF;stroke:none" width="250.0" height="250.0" x="0.0" y="0.0"> </rect>
<path class="bond-0 atom-0 atom-1" d="M 35.0,180.5 L 64.5,151.0" style="fill:none;fill-rule:evenodd;stroke:#000000;stroke-width:2.0px;stroke-linecap:butt;stroke-linejoin:miter;stroke-opacity:1"/>
<path class="bond-1 atom-1 atom-2" d="M 64.5,151.0 L 80.6,155.3" style="fill:none;fill-rule:evenodd;stroke:#000000;stroke-width:2.0px;stroke-linecap:butt;stroke-linejoin:miter;stroke-opacity:1"/>
<path class="bond-1 atom-1 atom-2" d="M 80.6,155.3 L 96.7,159.6" style="fill:none;fill-rule:evenodd;stroke:#0000FF;stroke-width:2.0px;stroke-linecap:butt;stroke-linejoin:miter;stroke-opacity:1"/>
<path class="bond-2 atom-2 atom-3" d="M 107.6,172.0 L 111.6,187.1" style="fill:none;fill-rule:evenodd;stroke:#0000FF;stroke-width:2.0px;stroke-linecap:butt;stroke-linejoin:miter;stroke-opacity:1"/>
<path class="bond-2 atom-2 atom-3" d="M 111.6,187.1 L 115.6,202.1" style="fill:none;fill-rule:evenodd;stroke:#000000;stroke-width:2.0px;stroke-linecap:butt;stroke-linejoin:miter;stroke-opacity:1"/>
<path class="bond-3 atom-3 atom-4" d="M 115.6,202.1 L 105.6,212.1" style="fill:none;fill-rule:evenodd;stroke:#000000;stroke-width:2.0px;stroke-linecap:butt;stroke-linejoin:miter;stroke-opacity:1"/>
<path class="bond-3 atom-3 atom-4" d="M 105.6,212.1 L 95.6,222.1" style="fill:none;fill-rule:evenodd;stroke:#FF0000;stroke-width:2.0px;stroke-linecap:butt;stroke-linejoin:miter;stroke-opacity:1"/>
<path class="bond-3 atom-3 atom-4" d="M 108.7,200.2 L 101.2,207.7" style="fill:none;fill-rule:evenodd;stroke:#000000;stroke-width:2.0px;stroke-linecap:butt;stroke-linejoin:miter;stroke-opacity:1"/>
<path class="bond-3 atom-3 atom-4" d="M 101.2,207.7 L 91.2,217.7" style="fill:none;fill-rule:evenodd;stroke:#FF0000;stroke-width:2.0px;stroke-linecap:butt;stroke-linejoin:miter;stroke-opacity:1"/>
<path class="bond-4 atom-2 atom-5" d="M 112.9,153.7 L 123.6,143.0" style="fill:none;fill-rule:evenodd;stroke:#0000FF;stroke-width:2.0px;stroke-linecap:butt;stroke-linejoin:miter;stroke-opacity:1"/>
<path class="bond-4 atom-2 atom-5" d="M 123.6,143.0 L 134.4,132.3" style="fill:none;fill-rule:evenodd;stroke:#000000;stroke-width:2.0px;stroke-linecap:butt;stroke-linejoin:miter;stroke-opacity:1"/>
<path class="bond-5 atom-5 atom-6" d="M 134.4,132.3 L 94.1,121.5" style="fill:none;fill-rule:evenodd;stroke:#000000;stroke-width:2.0px;stroke-linecap:butt;stroke-linejoin:miter;stroke-opacity:1"/>
<path class="bond-6 atom-5 atom-7" d="M 134.4,132.3 L 163.9,161.8" style="fill:none;fill-rule:evenodd;stroke:#000000;stroke-width:2.0px;stroke-linecap:butt;stroke-linejoin:miter;stroke-opacity:1"/>
<path class="bond-7 atom-7 atom-8" d="M 162.9,165.3 L 179.2,160.9" style="fill:none;fill-rule:evenodd;stroke:#000000;stroke-width:2.0px;stroke-linecap:butt;stroke-linejoin:miter;stroke-opacity:1"/>
<path class="bond-7 atom-7 atom-8" d="M 179.2,160.9 L 195.5,156.6" style="fill:none;fill-rule:evenodd;stroke:#FF0000;stroke-width:2.0px;stroke-linecap:butt;stroke-linejoin:miter;stroke-opacity:1"/>
<path class="bond-7 atom-7 atom-8" d="M 161.3,159.3 L 177.6,154.9" style="fill:none;fill-rule:evenodd;stroke:#000000;stroke-width:2.0px;stroke-linecap:butt;stroke-linejoin:miter;stroke-opacity:1"/>
<path class="bond-7 atom-7 atom-8" d="M 177.6,154.9 L 193.9,150.5" style="fill:none;fill-rule:evenodd;stroke:#FF0000;stroke-width:2.0px;stroke-linecap:butt;stroke-linejoin:miter;stroke-opacity:1"/>
<path class="bond-8 atom-7 atom-9" d="M 163.9,161.8 L 159.8,176.8" style="fill:none;fill-rule:evenodd;stroke:#000000;stroke-width:2.0px;stroke-linecap:butt;stroke-linejoin:miter;stroke-opacity:1"/>
<path class="bond-8 atom-7 atom-9" d="M 159.8,176.8 L 155.8,191.8" style="fill:none;fill-rule:evenodd;stroke:#FF0000;stroke-width:2.0px;stroke-linecap:butt;stroke-linejoin:miter;stroke-opacity:1"/>
<path class="bond-9 atom-5 atom-10" d="M 134.4,132.3 L 145.2,92.0" style="fill:none;fill-rule:evenodd;stroke:#000000;stroke-width:2.0px;stroke-linecap:butt;stroke-linejoin:miter;stroke-opacity:1"/>
<path class="bond-10 atom-10 atom-11" d="M 145.2,92.0 L 115.7,62.5" style="fill:none;fill-rule:evenodd;stroke:#000000;stroke-width:2.0px;stroke-linecap:butt;stroke-linejoin:miter;stroke-opacity:1"/>
<path class="bond-10 atom-10 atom-11" d="M 147.0,85.0 L 122.6,60.6" style="fill:none;fill-rule:evenodd;stroke:#000000;stroke-width:2.0px;stroke-linecap:butt;stroke-linejoin:miter;stroke-opacity:1"/>
<path class="bond-11 atom-11 atom-12" d="M 115.7,62.5 L 126.5,22.2" style="fill:none;fill-rule:evenodd;stroke:#000000;stroke-width:2.0px;stroke-linecap:butt;stroke-linejoin:miter;stroke-opacity:1"/>
<path class="bond-12 atom-12 atom-13" d="M 126.5,22.2 L 166.8,11.4" style="fill:none;fill-rule:evenodd;stroke:#000000;stroke-width:2.0px;stroke-linecap:butt;stroke-linejoin:miter;stroke-opacity:1"/>
<path class="bond-12 atom-12 atom-13" d="M 131.6,27.3 L 164.9,18.3" style="fill:none;fill-rule:evenodd;stroke:#000000;stroke-width:2.0px;stroke-linecap:butt;stroke-linejoin:miter;stroke-opacity:1"/>
<path class="bond-13 atom-13 atom-14" d="M 166.8,11.4 L 196.3,40.9" style="fill:none;fill-rule:evenodd;stroke:#000000;stroke-width:2.0px;stroke-linecap:butt;stroke-linejoin:miter;stroke-opacity:1"/>
<path class="bond-14 atom-14 atom-15" d="M 196.3,40.9 L 185.5,81.2" style="fill:none;fill-rule:evenodd;stroke:#000000;stroke-width:2.0px;stroke-linecap:butt;stroke-linejoin:miter;stroke-opacity:1"/>
<path class="bond-14 atom-14 atom-15" d="M 189.3,42.8 L 180.4,76.1" style="fill:none;fill-rule:evenodd;stroke:#000000;stroke-width:2.0px;stroke-linecap:butt;stroke-linejoin:miter;stroke-opacity:1"/>
<path class="bond-15 atom-15 atom-16" d="M 185.5,81.2 L 215.0,110.7" style="fill:none;fill-rule:evenodd;stroke:#000000;stroke-width:2.0px;stroke-linecap:butt;stroke-linejoin:miter;stroke-opacity:1"/>
<path class="bond-16 atom-15 atom-10" d="M 185.5,81.2 L 145.2,92.0" style="fill:none;fill-rule:evenodd;stroke:#000000;stroke-width:2.0px;stroke-linecap:butt;stroke-linejoin:miter;stroke-opacity:1"/>
<path d="M 63.1,152.5 L 64.5,151.0 L 65.3,151.2" style="fill:none;stroke:#000000;stroke-width:2.0px;stroke-linecap:butt;stroke-linejoin:miter;stroke-opacity:1;"/>
<path d="M 115.4,201.4 L 115.6,202.1 L 115.1,202.6" style="fill:none;stroke:#000000;stroke-width:2.0px;stroke-linecap:butt;stroke-linejoin:miter;stroke-opacity:1;"/>
<path d="M 162.4,160.3 L 163.9,161.8 L 163.7,162.6" style="fill:none;stroke:#000000;stroke-width:2.0px;stroke-linecap:butt;stroke-linejoin:miter;stroke-opacity:1;"/>
<path d="M 117.1,63.9 L 115.7,62.5 L 116.2,60.4" style="fill:none;stroke:#000000;stroke-width:2.0px;stroke-linecap:butt;stroke-linejoin:miter;stroke-opacity:1;"/>
<path d="M 125.9,24.2 L 126.5,22.2 L 128.5,21.6" style="fill:none;stroke:#000000;stroke-width:2.0px;stroke-linecap:butt;stroke-linejoin:miter;stroke-opacity:1;"/>
<path d="M 164.8,11.9 L 166.8,11.4 L 168.3,12.8" style="fill:none;stroke:#000000;stroke-width:2.0px;stroke-linecap:butt;stroke-linejoin:miter;stroke-opacity:1;"/>
<path d="M 194.8,39.4 L 196.3,40.9 L 195.7,42.9" style="fill:none;stroke:#000000;stroke-width:2.0px;stroke-linecap:butt;stroke-linejoin:miter;stroke-opacity:1;"/>
<path class="atom-2" d="M 100.9 152.9 L 106.7 162.3 Q 107.3 163.3, 108.2 164.9 Q 109.2 166.6, 109.2 166.7 L 109.2 152.9 L 111.6 152.9 L 111.6 170.7 L 109.1 170.7 L 102.9 160.4 Q 102.2 159.2, 101.4 157.8 Q 100.6 156.4, 100.4 156.0 L 100.4 170.7 L 98.1 170.7 L 98.1 152.9 L 100.9 152.9 " fill="#0000FF"/>
<path class="atom-4" d="M 75.8 229.4 Q 75.8 225.2, 77.9 222.8 Q 80.0 220.4, 83.9 220.4 Q 87.8 220.4, 89.9 222.8 Q 92.0 225.2, 92.0 229.4 Q 92.0 233.8, 89.9 236.2 Q 87.8 238.6, 83.9 238.6 Q 80.0 238.6, 77.9 236.2 Q 75.8 233.8, 75.8 229.4 M 83.9 236.6 Q 86.6 236.6, 88.1 234.8 Q 89.5 233.0, 89.5 229.4 Q 89.5 226.0, 88.1 224.2 Q 86.6 222.4, 83.9 222.4 Q 81.2 222.4, 79.7 224.2 Q 78.3 225.9, 78.3 229.4 Q 78.3 233.0, 79.7 234.8 Q 81.2 236.6, 83.9 236.6 " fill="#FF0000"/>
<path class="atom-8" d="M 196.0 151.1 Q 196.0 146.8, 198.1 144.4 Q 200.2 142.0, 204.2 142.0 Q 208.1 142.0, 210.2 144.4 Q 212.3 146.8, 212.3 151.1 Q 212.3 155.4, 210.2 157.8 Q 208.1 160.3, 204.2 160.3 Q 200.3 160.3, 198.1 157.8 Q 196.0 155.4, 196.0 151.1 M 204.2 158.3 Q 206.9 158.3, 208.3 156.4 Q 209.8 154.6, 209.8 151.1 Q 209.8 147.6, 208.3 145.8 Q 206.9 144.1, 204.2 144.1 Q 201.5 144.1, 200.0 145.8 Q 198.5 147.6, 198.5 151.1 Q 198.5 154.6, 200.0 156.4 Q 201.5 158.3, 204.2 158.3 " fill="#FF0000"/>
<path class="atom-9" d="M 144.9 202.2 Q 144.9 197.9, 147.0 195.5 Q 149.1 193.1, 153.1 193.1 Q 157.0 193.1, 159.1 195.5 Q 161.2 197.9, 161.2 202.2 Q 161.2 206.5, 159.1 208.9 Q 156.9 211.4, 153.1 211.4 Q 149.1 211.4, 147.0 208.9 Q 144.9 206.5, 144.9 202.2 M 153.1 209.3 Q 155.8 209.3, 157.2 207.5 Q 158.7 205.7, 158.7 202.2 Q 158.7 198.7, 157.2 196.9 Q 155.8 195.2, 153.1 195.2 Q 150.3 195.2, 148.9 196.9 Q 147.4 198.7, 147.4 202.2 Q 147.4 205.7, 148.9 207.5 Q 150.3 209.3, 153.1 209.3 " fill="#FF0000"/>
<path class="atom-9" d="M 164.0 193.3 L 166.4 193.3 L 166.4 200.9 L 175.4 200.9 L 175.4 193.3 L 177.8 193.3 L 177.8 211.1 L 175.4 211.1 L 175.4 202.9 L 166.4 202.9 L 166.4 211.1 L 164.0 211.1 L 164.0 193.3 " fill="#FF0000"/>
</svg>